<?xml version="1.0" encoding="utf-8" standalone="yes"?>
<!DOCTYPE svg PUBLIC "-//W3C//DTD SVG 1.1//EN" "http://www.w3.org/Graphics/SVG/1.1/DTD/svg11.dtd">
<svg width="720" height="456" viewBox="0 0 720 456" style="fill:none;stroke:none;fill-rule:evenodd;clip-rule:evenodd;stroke-linecap:round;stroke-linejoin:round;stroke-miterlimit:1.5;" version="1.1" xmlns="http://www.w3.org/2000/svg" xmlns:xlink="http://www.w3.org/1999/xlink"><style id="fontImports">@import url("https://fonts.googleapis.com/css2?family=Roboto:wght@400;700&amp;display=block");</style><g id="items" style="isolation: isolate"><g id="blend" style="mix-blend-mode:normal"><g id="g-root-5.cu_sy_1cwrs231dzeyhb-fill" data-item-order="999866859" data-item-id="5.cu_sy_1cwrs231dzeyhb" data-item-class="Part Indexed Fill Stroke" data-item-index="5" data-renderer-id="0" transform="translate(468.481689453125, 197.86279296875)"><g id="5.cu_sy_1cwrs231dzeyhb-fill" stroke="none" fill="url(#gradient-44d0ff-453494305)"><g><path d="M 95.5189 54.3613C 95.5189 74.3673 90.1463 90.5854 83.5189 90.5854L 82.9503 90.6341C 58.0923 92.7685 33.8589 95.4393 10.3927 98.6907L 10.0754 98.7275C 10.0503 98.7306 10.0251 98.7335 10 98.7362L 10.0754 98.7275C 17.549 97.7987 23.5181 78.2742 23.5181 54.3245C 23.5181 31.2704 17.9871 12.3167 10.9073 10.103C 10.6591 10.0688 10.411 10.0344 10.1629 10L 10.8856 10.0963C 10.8928 10.0985 10.9 10.1008 10.9073 10.103C 34.3494 13.3411 58.5553 16.0006 83.383 18.1255L 83.5189 18.1372C 90.1463 18.1372 95.5189 34.3553 95.5189 54.3613Z"></path></g></g></g><g id="g-root-5.line_sy_18hkr0r1dzew3s-fill" data-item-order="999866862" data-item-id="5.line_sy_18hkr0r1dzew3s" data-item-class="Curve Stroke Part LeaderLine Indexed ColorStrokeBlack" data-item-index="5" data-renderer-id="0" transform="translate(506, 170)"></g><g id="g-root-4.cu_sy_1q87eu218pqtqn-fill" data-item-order="999866863" data-item-id="4.cu_sy_1q87eu218pqtqn" data-item-class="Part Indexed Fill Stroke" data-item-index="4" data-renderer-id="0" transform="translate(396.091796875, 185.3671875)"><g id="4.cu_sy_1q87eu218pqtqn-fill" stroke="none" fill="url(#gradient-65e5a8-188701211)"><g><path d="M 10.0607 10C 33.2293 14.865601 57.4512 19.012901 82.5518 22.4955L 83.2754 22.591901C 90.3656 24.7736 95.9078 43.742501 95.9078 66.820101C 95.9078 90.850301 89.8986 110.426 82.3898 111.232001L 81.8441 111.316C 57.0298 114.774001 33.0771 118.882001 10.1548 123.694001C 10.1435 123.697001 10.1321 123.701001 10.1207 123.704001L 10 123.726001C 10.0516 123.715 10.1032 123.705 10.1548 123.694001C 17.843 121.315001 23.8878 96.760401 23.8878 66.820101C 23.8878 37.506001 18.0932 13.354601 10.635 10.124701L 10.0607 10Z"></path></g></g></g><g id="g-root-4.line_sy_1lsdwpm18pquiw-fill" data-item-order="999866866" data-item-id="4.line_sy_1lsdwpm18pquiw" data-item-class="Curve Stroke Part LeaderLine Indexed ColorStrokeBlack" data-item-index="4" data-renderer-id="0" transform="translate(434, 292)"></g><g id="g-root-3.cu_sy_1q87eu218pqtql-fill" data-item-order="999866867" data-item-id="3.cu_sy_1q87eu218pqtql" data-item-class="Part Indexed Fill Stroke" data-item-index="3" data-renderer-id="0" transform="translate(323.150390625, 166.5458984375)"><g id="3.cu_sy_1q87eu218pqtql-fill" stroke="none" fill="url(#gradient-ffeb38-392015901)"><g><path d="M 83.5764 28.9459C 91.0346 32.1759 96.8292 56.3273 96.8292 85.6414C 96.8292 115.626 90.7665 140.209 83.0621 142.525L 82.942 142.548C 57.2533 147.944 32.8599 154.224 10 161.461L 10.495 161.303C 18.5642 157.371 24.8587 124.997 24.8587 85.6414C 24.8587 46.816 18.7327 14.7849 10.8201 10.154C 10.6574 10.1027 10.4946 10.0514 10.332 10L 10.8182 10.1529C 10.8188 10.1532 10.8195 10.1536 10.8201 10.154C 33.4611 17.2874 57.5987 23.4862 83.0027 28.8213L 83.5764 28.9459Z"></path></g></g></g><g id="g-root-3.line_sy_1q87eu218pqtqm-fill" data-item-order="999866870" data-item-id="3.line_sy_1q87eu218pqtqm" data-item-class="Curve Stroke Part LeaderLine Indexed ColorStrokeBlack" data-item-index="3" data-renderer-id="0" transform="translate(362, 134)"></g><g id="g-root-2.cu_sy_23w0q18pqwar-fill" data-item-order="999866871" data-item-id="2.cu_sy_23w0q18pqwar" data-item-class="Part Indexed Fill Stroke" data-item-index="2" data-renderer-id="0" transform="translate(250.582763671875, 137.59912109375)"><g id="2.cu_sy_23w0q18pqwar-fill" stroke="none" fill="url(#gradient-fba659-170788768)"><g><path d="M 82.5682 190.408C 56.3669 198.702 32.1801 208.254 10.3663 219.172L 10 219.35C 18.6495 214.396 25.4213 169.398 25.4213 114.619C 25.4213 60.3202 18.7678 15.6314 10.2273 10.027L 10.2122 10C 32.1582 20.997 56.5094 30.6084 82.9002 38.9468L 83.3858 39.0996C 91.2993 43.7263 97.4263 75.7596 97.4263 114.588C 97.4263 153.944 91.1319 186.318 83.0627 190.25L 82.5682 190.408Z"></path></g></g></g><g id="g-root-2.line_sy_23w0q18pqwas-fill" data-item-order="999866874" data-item-id="2.line_sy_23w0q18pqwas" data-item-class="Curve Stroke Part LeaderLine Indexed ColorStrokeBlack" data-item-index="2" data-renderer-id="0" transform="translate(290, 329.99951171875)"></g><g id="g-root-1.cu_sy_4hxe5618pqvih-fill" data-item-order="999866875" data-item-id="1.cu_sy_4hxe5618pqvih" data-item-class="Part Indexed Indexed_1 Fill Stroke" data-item-index="1" data-renderer-id="0" transform="translate(158, 86)"><defs><linearGradient id="gradient-44d0ff-453494305" x2="0" y2="1"><stop offset="0" stop-color="#6ddafe"></stop><stop offset="1" stop-color="#1AC6FF"></stop></linearGradient><linearGradient id="gradient-65e5a8-188701211" x2="0" y2="1"><stop offset="0" stop-color="#85eaba"></stop><stop offset="1" stop-color="#44E095"></stop></linearGradient><linearGradient id="gradient-ffeb38-392015901" x2="0" y2="1"><stop offset="0" stop-color="#fff066"></stop><stop offset="1" stop-color="#FFE60A"></stop></linearGradient><linearGradient id="gradient-fba659-170788768" x2="0" y2="1"><stop offset="0" stop-color="#fcb778"></stop><stop offset="1" stop-color="#F99539"></stop></linearGradient><linearGradient id="gradient-fd8480-377457365" x2="0" y2="1"><stop offset="0" stop-color="#fd9e9a"></stop><stop offset="1" stop-color="#FD6A65"></stop></linearGradient></defs><g id="1.cu_sy_4hxe5618pqvih-fill" stroke="none" fill="url(#gradient-fd8480-377457365)"><g><path d="M 30.2302 11.409721C 49.5572 30.283721 73.9153 47.035521 101.8823 61.141421L 102.81 61.626121C 111.351 67.230521 118.004 111.919121 118.004 166.218121C 118.004 220.997121 111.232 265.995121 102.5828 270.949121C 74.4724 285.093121 49.5702 302.156121 30.166 321.106121C 29.4558 321.844121 28.7332 322.224121 28 322.224121C 18.0589 322.224121 10 252.380121 10 166.224121C 10 80.067721 18.0589 10.224121 28 10.224121C 28.7552 10.224121 29.4995 10.627121 30.2302 11.409721C 30.1206 11.274521 30.3404 11.527721 30.2302 11.409721Z"></path></g></g></g><g id="g-root-1.line_sy_23w0q18pqwaq-fill" data-item-order="999866878" data-item-id="1.line_sy_23w0q18pqwaq" data-item-class="Curve Stroke Part LeaderLine Indexed Indexed_1 ColorStrokeBlack" data-item-index="1" data-renderer-id="0" transform="translate(218, 62)"></g><g id="g-root-tx_identify_8xqw9m18pquq6-fill" data-item-order="1000000000" data-item-id="tx_identify_8xqw9m18pquq6" data-item-class="Label Stroke Indexed Indexed_1 ColorStrokeBlack" data-item-index="1" data-renderer-id="0" transform="translate(152, 2)"><g id="tx_identify_8xqw9m18pquq6-fill" stroke="none" fill="#484848"><g><text style="font: 20px Roboto, sans-serif; white-space: pre;" font-weight="20px" font-size="Roboto," font-family="sans-serif"><tspan x="14.04" y="34" dominant-baseline="ideographic">Recover from </tspan><tspan x="31.68" y="58" dominant-baseline="ideographic">emotions</tspan></text></g></g></g><g id="g-root-tx_enhancep_htdwii18pqtxg-fill" data-item-order="1000000000" data-item-id="tx_enhancep_htdwii18pqtxg" data-item-class="Label Stroke Indexed ColorStrokeBlack" data-item-index="3" data-renderer-id="0" transform="translate(284, 50)"><g id="tx_enhancep_htdwii18pqtxg-fill" stroke="none" fill="#484848"><g><text style="font: 20px Roboto, sans-serif; white-space: pre;" font-weight="20px" font-size="Roboto," font-family="sans-serif"><tspan x="49.8" y="34" dominant-baseline="ideographic">Enhance </tspan><tspan x="41.09" y="58" dominant-baseline="ideographic">Planning + </tspan><tspan x="17.21" y="82" dominant-baseline="ideographic">Communication</tspan></text></g></g></g><g id="g-root-tx_neweleme_v648nf1dzexop-fill" data-item-order="1000000000" data-item-id="tx_neweleme_v648nf1dzexop" data-item-class="Label Stroke Indexed ColorStrokeBlack" data-item-index="5" data-renderer-id="0" transform="translate(452, 134)"><g id="tx_neweleme_v648nf1dzexop-fill" stroke="none" fill="#484848"><g><text style="font: 20px Roboto, sans-serif; white-space: pre;" font-weight="20px" font-size="Roboto," font-family="sans-serif"><tspan x="12.75" y="34" dominant-baseline="ideographic">Dream Big</tspan></text></g></g></g><g id="g-root-tx_emotiona_8xqw9m18pquq7-fill" data-item-order="1000000000" data-item-id="tx_emotiona_8xqw9m18pquq7" data-item-class="Label Stroke ColorStrokeGray" data-item-index="none" data-renderer-id="0" transform="translate(2, 230)"><g id="tx_emotiona_8xqw9m18pquq7-fill" stroke="none" fill="#888888"><g><text style="font: 20px Roboto, sans-serif; white-space: pre;" font-weight="20px" font-size="Roboto," font-family="sans-serif"><tspan x="12.02" y="34" dominant-baseline="ideographic">Unstable Chaos</tspan></text></g></g></g><g id="g-root-sear_8xqw9m18pwg7b-fill" data-item-order="1000000000" data-item-id="sear_8xqw9m18pwg7b" data-item-class="Icon Stroke Indexed Indexed_1 InsideFill InsideColorFill" data-item-index="1" data-renderer-id="0" transform="translate(206, 218)"></g><g id="g-root-uncl_4jstei18pv11p-fill" data-item-order="1000000000" data-item-id="uncl_4jstei18pv11p" data-item-class="Icon Stroke Indexed InsideFill InsideColorFill" data-item-index="2" data-renderer-id="0" transform="translate(278, 218)"></g><g id="g-root-chec_13z8gyi18pwiks-fill" data-item-order="1000000000" data-item-id="chec_13z8gyi18pwiks" data-item-class="Icon Stroke Indexed InsideFill InsideColorFill" data-item-index="3" data-renderer-id="0" transform="translate(350, 218)"></g><g id="g-root-1_zqa6sa18pv3m2-fill" data-item-order="1000000000" data-item-id="1_zqa6sa18pv3m2" data-item-class="Icon Stroke Indexed InsideFill InsideColorFill" data-item-index="4" data-renderer-id="0" transform="translate(422, 218)"></g><g id="g-root-typi_8cq171h1daf7-fill" data-item-order="1000000000" data-item-id="typi_8cq171h1daf7" data-item-class="Icon Stroke Indexed InsideFill InsideColorFill" data-item-index="5" data-renderer-id="0" transform="translate(494, 218)"></g><g id="g-root-tx_sustaina_v47xsq18pqvia-fill" data-item-order="1000000000" data-item-id="tx_sustaina_v47xsq18pqvia" data-item-class="Label Stroke" data-item-index="none" data-renderer-id="0" transform="translate(566, 218)"><g id="tx_sustaina_v47xsq18pqvia-fill" stroke="none" fill="#795ee3"><g><text style="font: 20px Roboto, sans-serif; white-space: pre;" font-weight="20px" font-size="Roboto," font-family="sans-serif"><tspan x="12" y="33.5" dominant-baseline="ideographic">Sustainable </tspan><tspan x="12" y="57.5" dominant-baseline="ideographic">Mental Peace</tspan></text></g></g></g><g id="g-root-tx_achievef_m8kxju18pqwaz-fill" data-item-order="1000000000" data-item-id="tx_achievef_m8kxju18pqwaz" data-item-class="Label Stroke Indexed ColorStrokeBlack" data-item-index="4" data-renderer-id="0" transform="translate(386, 338.4482421875)"><g id="tx_achievef_m8kxju18pqwaz-fill" stroke="none" fill="#484848"><g><text style="font: 20px Roboto, sans-serif; white-space: pre;" font-weight="20px" font-size="Roboto," font-family="sans-serif"><tspan x="12.98" y="34" dominant-baseline="ideographic">Add Time </tspan><tspan x="26.41" y="58" dominant-baseline="ideographic">in Flow</tspan></text></g></g></g><g id="g-root-tx_overcome_htdwii18pqtxh-fill" data-item-order="1000000000" data-item-id="tx_overcome_htdwii18pqtxh" data-item-class="Label Stroke Indexed ColorStrokeBlack" data-item-index="2" data-renderer-id="0" transform="translate(230, 386)"><g id="tx_overcome_htdwii18pqtxh-fill" stroke="none" fill="#484848"><g><text style="font: 20px Roboto, sans-serif; white-space: pre;" font-weight="20px" font-size="Roboto," font-family="sans-serif"><tspan x="24.75" y="33.5" dominant-baseline="ideographic">Overcome </tspan><tspan x="14.19" y="57.5" dominant-baseline="ideographic">Stuck Points</tspan></text></g></g></g><g id="g-root-5.cu_sy_1cwrs231dzeyhb-stroke" data-item-order="999866859" data-item-id="5.cu_sy_1cwrs231dzeyhb" data-item-class="Part Indexed Fill Stroke" data-item-index="5" data-renderer-id="0" transform="translate(468.481689453125, 197.86279296875)"><g id="5.cu_sy_1cwrs231dzeyhb-stroke" fill="none" stroke-linecap="round" stroke-linejoin="round" stroke-miterlimit="4" stroke="#17b0e3" stroke-width="2"><g><path d="M 95.5189 54.3613C 95.5189 74.3673 90.1463 90.5854 83.5189 90.5854L 82.9503 90.6341C 58.0923 92.7685 33.8589 95.4393 10.3927 98.6907L 10 98.7362C 17.5088 97.9299 23.5181 78.3547 23.5181 54.3245C 23.5181 31.2469 17.9758 12.278 10.8856 10.0963L 10.1629 10C 33.8369 13.2847 58.2924 15.9781 83.383 18.1255L 83.5189 18.1372C 90.1463 18.1372 95.5189 34.3553 95.5189 54.3613Z"></path></g></g></g><g id="g-root-5.line_sy_18hkr0r1dzew3s-stroke" data-item-order="999866862" data-item-id="5.line_sy_18hkr0r1dzew3s" data-item-class="Curve Stroke Part LeaderLine Indexed ColorStrokeBlack" data-item-index="5" data-renderer-id="0" transform="translate(506, 170)"><g id="5.line_sy_18hkr0r1dzew3s-stroke" fill="none" stroke-linecap="round" stroke-linejoin="round" stroke-miterlimit="4" stroke="#484848" stroke-width="2"><g><path d="M 10 10L 10 40.5"></path><path d="M 3.5 34.5L 10 41L 16.5 34.5" stroke-dasharray="none"></path></g></g></g><g id="g-root-4.cu_sy_1q87eu218pqtqn-stroke" data-item-order="999866863" data-item-id="4.cu_sy_1q87eu218pqtqn" data-item-class="Part Indexed Fill Stroke" data-item-index="4" data-renderer-id="0" transform="translate(396.091796875, 185.3671875)"><g id="4.cu_sy_1q87eu218pqtqn-stroke" fill="none" stroke-linecap="round" stroke-linejoin="round" stroke-miterlimit="4" stroke="#3bc482" stroke-width="2"><g><path d="M 10.0607 10C 33.2293 14.865601 57.4512 19.012801 82.5518 22.4955L 83.2754 22.591901C 90.3656 24.7736 95.9078 43.742501 95.9078 66.820101C 95.9078 90.850301 89.8986 110.425501 82.3898 111.231801L 81.8441 111.316501C 56.974 114.7818 32.9692 118.9009 10 123.7263L 10.1207 123.7041C 17.8251 121.3875 23.8878 96.8046 23.8878 66.820101C 23.8878 37.506001 18.0932 13.354601 10.635 10.124701L 10.0607 10Z"></path></g></g></g><g id="g-root-4.line_sy_1lsdwpm18pquiw-stroke" data-item-order="999866866" data-item-id="4.line_sy_1lsdwpm18pquiw" data-item-class="Curve Stroke Part LeaderLine Indexed ColorStrokeBlack" data-item-index="4" data-renderer-id="0" transform="translate(434, 292)"><g id="4.line_sy_1lsdwpm18pquiw-stroke" fill="none" stroke-linecap="round" stroke-linejoin="round" stroke-miterlimit="4" stroke="#484848" stroke-width="2"><g><path d="M 10 12L 10 43.58"></path><path d="M 16.5 18L 10 11.5L 3.5 18" stroke-dasharray="none"></path></g></g></g><g id="g-root-3.cu_sy_1q87eu218pqtql-stroke" data-item-order="999866867" data-item-id="3.cu_sy_1q87eu218pqtql" data-item-class="Part Indexed Fill Stroke" data-item-index="3" data-renderer-id="0" transform="translate(323.150390625, 166.5458984375)"><g id="3.cu_sy_1q87eu218pqtql-stroke" fill="none" stroke-linecap="round" stroke-linejoin="round" stroke-miterlimit="4" stroke="#e3cd09" stroke-width="2"><g><path d="M 83.5764 28.9459C 91.0346 32.1759 96.8292 56.3273 96.8292 85.6414C 96.8292 115.6259 90.7665 140.2088 83.0621 142.5254L 82.942 142.5475C 57.2533 147.9442 32.8599 154.2242 10 161.461L 10.495 161.3031C 18.5642 157.3714 24.8587 124.9969 24.8587 85.6414C 24.8587 46.8128 18.7317 14.7795 10.8182 10.1529L 10.332 10C 33.1141 17.1982 57.4161 23.4478 83.0027 28.8213L 83.5764 28.9459Z"></path></g></g></g><g id="g-root-3.line_sy_1q87eu218pqtqm-stroke" data-item-order="999866870" data-item-id="3.line_sy_1q87eu218pqtqm" data-item-class="Curve Stroke Part LeaderLine Indexed ColorStrokeBlack" data-item-index="3" data-renderer-id="0" transform="translate(362, 134)"><g id="3.line_sy_1q87eu218pqtqm-stroke" fill="none" stroke-linecap="round" stroke-linejoin="round" stroke-miterlimit="4" stroke="#484848" stroke-width="2"><g><path d="M 10 10L 10 50.75"></path><path d="M 3.5 44.8L 10 51.3L 16.5 44.8" stroke-dasharray="none"></path></g></g></g><g id="g-root-2.cu_sy_23w0q18pqwar-stroke" data-item-order="999866871" data-item-id="2.cu_sy_23w0q18pqwar" data-item-class="Part Indexed Fill Stroke" data-item-index="2" data-renderer-id="0" transform="translate(250.582763671875, 137.59912109375)"><g id="2.cu_sy_23w0q18pqwar-stroke" fill="none" stroke-linecap="round" stroke-linejoin="round" stroke-miterlimit="4" stroke="#dd8433" stroke-width="2"><g><path d="M 10.3663 219.1724C 32.1801 208.2538 56.3669 198.7024 82.5682 190.4078L 83.0627 190.2499C 91.1319 186.3182 97.4263 153.9437 97.4263 114.5882C 97.4263 75.7596 91.2993 43.7263 83.3858 39.0996L 82.9002 38.9468C 56.5094 30.6084 32.1582 20.997 10.2122 10L 10.2273 10.027C 18.7678 15.6314 25.4213 60.3202 25.4213 114.6186C 25.4213 169.3976 18.6495 214.3961 10 219.3497L 10.3663 219.1724Z"></path></g></g></g><g id="g-root-2.line_sy_23w0q18pqwas-stroke" data-item-order="999866874" data-item-id="2.line_sy_23w0q18pqwas" data-item-class="Curve Stroke Part LeaderLine Indexed ColorStrokeBlack" data-item-index="2" data-renderer-id="0" transform="translate(290, 329.99951171875)"><g id="2.line_sy_23w0q18pqwas-stroke" fill="none" stroke-linecap="round" stroke-linejoin="round" stroke-miterlimit="4" stroke="#484848" stroke-width="2"><g><path d="M 10 12.000488L 10 54.250488"></path><path d="M 16.5 18.000488L 10 11.500488L 3.5 18.000488" stroke-dasharray="none"></path></g></g></g><g id="g-root-1.cu_sy_4hxe5618pqvih-stroke" data-item-order="999866875" data-item-id="1.cu_sy_4hxe5618pqvih" data-item-class="Part Indexed Indexed_1 Fill Stroke" data-item-index="1" data-renderer-id="0" transform="translate(158, 86)"><g id="1.cu_sy_4hxe5618pqvih-stroke" fill="none" stroke-linecap="round" stroke-linejoin="round" stroke-miterlimit="4" stroke="#e15e5a" stroke-width="2"><g><path d="M 10 166C 10 252.156423 18.058875 322.000002 28 322.000002C 37.941126 322.000002 46 252.156423 46 166.000002C 46 79.843581 37.941126 10.000002 28 10.000002C 18.058875 10.000002 10 79.843581 10 166.000002M 30.074219 321.19681C 49.009019 302.95661 75.196019 283.70611 103.055219 270.91191C 111.482419 264.30161 118.000519 223.29441 118.000519 166.23431C 118.000519 108.97511 111.439019 67.66101 102.969319 61.31111C 75.101219 48.51661 49.090319 28.92651 30.177719 11.13121"></path></g></g></g><g id="g-root-1.line_sy_23w0q18pqwaq-stroke" data-item-order="999866878" data-item-id="1.line_sy_23w0q18pqwaq" data-item-class="Curve Stroke Part LeaderLine Indexed Indexed_1 ColorStrokeBlack" data-item-index="1" data-renderer-id="0" transform="translate(218, 62)"><g id="1.line_sy_23w0q18pqwaq-stroke" fill="none" stroke-linecap="round" stroke-linejoin="round" stroke-miterlimit="4" stroke="#484848" stroke-width="2"><g><path d="M 10 10L 10 65"></path><path d="M 3.5 59L 10 65.5L 16.5 59" stroke-dasharray="none"></path></g></g></g><g id="g-root-tx_identify_8xqw9m18pquq6-stroke" data-item-order="1000000000" data-item-id="tx_identify_8xqw9m18pquq6" data-item-class="Label Stroke Indexed Indexed_1 ColorStrokeBlack" data-item-index="1" data-renderer-id="0" transform="translate(152, 2)"></g><g id="g-root-tx_enhancep_htdwii18pqtxg-stroke" data-item-order="1000000000" data-item-id="tx_enhancep_htdwii18pqtxg" data-item-class="Label Stroke Indexed ColorStrokeBlack" data-item-index="3" data-renderer-id="0" transform="translate(284, 50)"></g><g id="g-root-tx_neweleme_v648nf1dzexop-stroke" data-item-order="1000000000" data-item-id="tx_neweleme_v648nf1dzexop" data-item-class="Label Stroke Indexed ColorStrokeBlack" data-item-index="5" data-renderer-id="0" transform="translate(452, 134)"></g><g id="g-root-tx_emotiona_8xqw9m18pquq7-stroke" data-item-order="1000000000" data-item-id="tx_emotiona_8xqw9m18pquq7" data-item-class="Label Stroke ColorStrokeGray" data-item-index="none" data-renderer-id="0" transform="translate(2, 230)"></g><g id="g-root-sear_8xqw9m18pwg7b-stroke" data-item-order="1000000000" data-item-id="sear_8xqw9m18pwg7b" data-item-class="Icon Stroke Indexed Indexed_1 InsideFill InsideColorFill" data-item-index="1" data-renderer-id="0" transform="translate(206, 218)"><g id="sear_8xqw9m18pwg7b-stroke" fill="none" stroke-linecap="round" stroke-linejoin="round" stroke-miterlimit="4" stroke="#484848" stroke-width="2"><g><path d="M 11.714286 30.297144C 11.712329 40.561554 20.03273 48.883545 30.297144 48.883545C 40.561554 48.883545 48.881958 40.561554 48.880001 30.297144C 48.881958 20.03273 40.561554 11.710742 30.297144 11.710742C 20.03273 11.710742 11.712329 20.03273 11.714286 30.297144M 56.285713 56.285713L 43.428574 43.428574"></path></g></g></g><g id="g-root-uncl_4jstei18pv11p-stroke" data-item-order="1000000000" data-item-id="uncl_4jstei18pv11p" data-item-class="Icon Stroke Indexed InsideFill InsideColorFill" data-item-index="2" data-renderer-id="0" transform="translate(278, 218)"><g id="uncl_4jstei18pv11p-stroke" fill="none" stroke-linecap="round" stroke-linejoin="round" stroke-miterlimit="4" stroke="#484848" stroke-width="2"><g><path d="M 17 57L 51 57M 34 41L 34 29M 38.5 43.740002C 38.200901 43.637451 38 43.356194 38 43.040001L 38 43.040001C 38 41.935432 37.104568 41.040001 36 41.040001L 32 41.040001C 30.89543 41.040001 30 41.935432 30 43.040001L 30 43.040001C 30 43.356194 29.799101 43.637451 29.5 43.740002C 23.819496 45.668201 19.998745 51.001163 20 57.000004L 48 57C 48.001255 51.001163 44.180504 45.668201 38.5 43.740002ZM 38 25C 38 27.209139 36.209137 29 34 29C 31.790861 29 30 27.209139 30 25L 30 15C 30 12.790861 31.790861 11 34 11C 36.209137 11 38 12.790861 38 15Z"></path></g></g></g><g id="g-root-chec_13z8gyi18pwiks-stroke" data-item-order="1000000000" data-item-id="chec_13z8gyi18pwiks" data-item-class="Icon Stroke Indexed InsideFill InsideColorFill" data-item-index="3" data-renderer-id="0" transform="translate(350, 218)"><g id="chec_13z8gyi18pwiks-stroke" fill="none" stroke-linecap="round" stroke-linejoin="round" stroke-miterlimit="4" stroke="#484848" stroke-width="2"><g><path d="M 42.57143 15.142858L 47.714287 15.142858C 49.607834 15.142858 51.142857 16.677881 51.142857 18.571428L 51.142857 52.857143C 51.142857 54.750694 49.607834 56.285713 47.714287 56.285713L 20.285715 56.285713C 18.392166 56.285713 16.857143 54.750694 16.857143 52.857143L 16.857143 18.571428C 16.857143 16.677881 18.392166 15.142858 20.285715 15.142858L 25.428572 15.142858M 28.857143 11.714286L 39.142857 11.714286C 39.142857 11.714286 42.57143 11.714286 42.57143 15.142858L 42.57143 16.857143C 42.57143 16.857143 42.57143 20.285715 39.142857 20.285715L 28.857143 20.285715C 28.857143 20.285715 25.428572 20.285715 25.428572 16.857143L 25.428572 15.142858C 25.428572 15.142858 25.428572 11.714286 28.857143 11.714286M 25.428572 39.142857L 32.285713 44.285713L 40.857143 30.571428"></path></g></g></g><g id="g-root-1_zqa6sa18pv3m2-stroke" data-item-order="1000000000" data-item-id="1_zqa6sa18pv3m2" data-item-class="Icon Stroke Indexed InsideFill InsideColorFill" data-item-index="4" data-renderer-id="0" transform="translate(422, 218)"><g id="1_zqa6sa18pv3m2-stroke" fill="none" stroke-linecap="round" stroke-linejoin="round" stroke-miterlimit="4" stroke="#484848" stroke-width="2"><g><path d="M 19.125999 35.799999L 22.125999 27.799999C 22.364603 27.162849 22.910748 26.690699 23.575695 26.546707C 24.240644 26.402716 24.933189 26.606636 25.414 27.087999L 28.827999 30.5L 33 30.5C 34.104568 30.5 35 31.39543 35 32.5C 35 33.604568 34.104568 34.5 33 34.5L 28 34.5C 27.46961 34.499886 26.960985 34.289101 26.586 33.914001L 24.785999 32.113998M 44.924 50.5L 51 50.5C 53.878014 50.503128 56.352867 48.462265 56.89793 45.636337C 57.442997 42.81041 55.90472 39.995495 53.232002 38.928001M 25.924 50.5L 39.23 50.5M 17 38.5C 13.686292 38.5 11 41.186295 11 44.5C 11 47.813709 13.686292 50.5 17 50.5L 20.23 50.5M 22.5 19.5C 22.5 21.709139 24.290861 23.5 26.5 23.5C 28.709139 23.5 30.5 21.709139 30.5 19.5C 30.5 17.290861 28.709139 15.5 26.5 15.5C 24.290861 15.5 22.5 17.290861 22.5 19.5M 32 34.5L 26.780001 43.228001M 26.780001 43.228001C 25.331444 42.617702 23.653866 43.039341 22.666 44.262001L 19.584 49.400002C 20.423759 51.457985 22.521265 52.714531 24.732 52.484001L 27.813999 47.335999C 28.419857 45.888988 27.998699 44.215763 26.780001 43.228001ZM 38.125999 35.799999L 41.125999 27.799999C 41.364601 27.162849 41.910744 26.690699 42.575695 26.546707C 43.240646 26.402716 43.933189 26.606636 44.414001 27.087999L 47.827999 30.502001L 52 30.502001C 53.104568 30.502001 54 31.39743 54 32.501999C 54 33.606567 53.104568 34.501999 52 34.501999L 47 34.501999C 46.469612 34.501884 45.960987 34.2911 45.585999 33.916L 43.785999 32.115997M 41.5 19.5C 41.5 21.709139 43.290859 23.5 45.5 23.5C 47.709141 23.5 49.5 21.709139 49.5 19.5C 49.5 17.290861 47.709141 15.5 45.5 15.5C 43.290859 15.5 41.5 17.290861 41.5 19.5M 51 34.5L 45.779999 43.228001M 45.779999 43.228001C 44.331444 42.617702 42.653866 43.039341 41.666 44.262001L 38.584 49.400002C 39.423759 51.457985 41.521263 52.714531 43.732002 52.484001L 46.813999 47.335999C 47.419857 45.888988 46.998699 44.215763 45.779999 43.228001Z"></path></g></g></g><g id="g-root-typi_8cq171h1daf7-stroke" data-item-order="1000000000" data-item-id="typi_8cq171h1daf7" data-item-class="Icon Stroke Indexed InsideFill InsideColorFill" data-item-index="5" data-renderer-id="0" transform="translate(494, 218)"><g id="typi_8cq171h1daf7-stroke" fill="none" stroke-linecap="round" stroke-linejoin="round" stroke-miterlimit="4" stroke="#484848" stroke-width="2"><g><path d="M 16 49C 16 50.656857 17.343145 52 19 52C 20.656855 52 22 50.656857 22 49C 22 47.343147 20.656855 46 19 46C 17.343145 46 16 47.343147 16 49M 42 11C 36.47427 11.032539 31.444578 14.194503 29.019999 19.16C 27.106348 17.755157 24.793953 16.998373 22.42 17C 15.98036 17.11598 10.85402 22.430359 10.97 28.870001C 11.085979 35.309639 16.40036 40.435982 22.84 40.32C 24.939022 43.447182 28.453699 45.328167 32.220001 45.34C 34.882191 45.34119 37.457115 44.390667 39.48 42.66C 40.525234 42.883965 41.591042 42.997917 42.66 43C 51.32 43 57 35.84 57 27C 57 18.16 50.66 11 42 11ZM 24 29.5C 24.276142 29.5 24.5 29.723858 24.5 30C 24.5 30.276142 24.276142 30.5 24 30.5C 23.723858 30.5 23.5 30.276142 23.5 30C 23.5 29.723858 23.723858 29.5 24 29.5M 34 29.5C 34.276142 29.5 34.5 29.723858 34.5 30C 34.5 30.276142 34.276142 30.5 34 30.5C 33.723858 30.5 33.5 30.276142 33.5 30C 33.5 29.723858 33.723858 29.5 34 29.5M 44 29.5C 44.276142 29.5 44.5 29.723858 44.5 30C 44.5 30.276142 44.276142 30.5 44 30.5C 43.723858 30.5 43.5 30.276142 43.5 30C 43.5 29.723858 43.723858 29.5 44 29.5M 11.5 56C 11.776142 56 12 56.223858 12 56.5C 12 56.776142 11.776142 57 11.5 57C 11.223858 57 11 56.776142 11 56.5C 11 56.223858 11.223858 56 11.5 56"></path></g></g></g><g id="g-root-tx_sustaina_v47xsq18pqvia-stroke" data-item-order="1000000000" data-item-id="tx_sustaina_v47xsq18pqvia" data-item-class="Label Stroke" data-item-index="none" data-renderer-id="0" transform="translate(566, 218)"></g><g id="g-root-tx_achievef_m8kxju18pqwaz-stroke" data-item-order="1000000000" data-item-id="tx_achievef_m8kxju18pqwaz" data-item-class="Label Stroke Indexed ColorStrokeBlack" data-item-index="4" data-renderer-id="0" transform="translate(386, 338.4482421875)"></g><g id="g-root-tx_overcome_htdwii18pqtxh-stroke" data-item-order="1000000000" data-item-id="tx_overcome_htdwii18pqtxh" data-item-class="Label Stroke Indexed ColorStrokeBlack" data-item-index="2" data-renderer-id="0" transform="translate(230, 386)"></g></g></g></svg>